<?xml version="1.0" encoding="UTF-8"?>
<svg width="43" height="62" version="1.0" viewBox="0 0 43 62" xmlns="http://www.w3.org/2000/svg" xmlns:cc="http://creativecommons.org/ns#" xmlns:dc="http://purl.org/dc/elements/1.1/" xmlns:rdf="http://www.w3.org/1999/02/22-rdf-syntax-ns#">
 <metadata>
  <rdf:RDF>
   <cc:Work rdf:about="">
    <dc:format>image/svg+xml</dc:format>
    <dc:type rdf:resource="http://purl.org/dc/dcmitype/StillImage"/>
    <dc:title/>
   </cc:Work>
  </rdf:RDF>
 </metadata>
 <g transform="matrix(.0096304 0 0 -.0095293 41.029 47.022)" fill="#c38a8a">
  <path d="m-1968.4-733.53c-114.54-20.973-261.35-46.14-325.89-55.928l-114.54-15.38-55.598-195.4c-48.399-132.83-100.02-229.3-171.01-320.19-25.813-32.158-46.786-61.52-46.786-67.113 0-16.778 138.74-61.52 258.13-81.095 359.77-62.918 677.58-30.76 838.91 85.29l54.852 40.548-93.571 288.03c-74.212 229.3-105.01 263.68-121 288.03-14.52-1.3982-107.34 54.184-223.5 33.212zm-962.31 43.236c-1249 338.45-1651.4 1468.9-892.9 2507.8 383.68 525.48 362.33 837.3-68.074 994.15l-165.21 60.204 156.17 88.684c68.234 38.748 366.44 88.683 545.76 88.683h389.59l-80.672 165.55c-456.47 936.73 636.88 1972.3 1653.1 1565.6l218.3-87.354-150.25-34.816c-618.97-143.43-549.45-610.29 207.92-1396.4 830.53-862.04 1154.9-1373.6 1249.7-1970.8 115.42-727.3-412.65-1559.7-1192.2-1879.3-396.49-162.56-485.61-155.21-240.58 19.834 436.74 312 638.28 908.4 446.99 1322.7-104.87 227.15-102.14 226.64-272.26 51.414-156.03-160.71-458.74-261.75-655.78-218.89l-136.83 29.763 135.03 139.08c385.34 396.89 300.11 995.12-201.23 1412.4l-191.48 159.37 30.215-195.23c45.259-292.44-109.44-583.34-512.77-964.25-702.03-662.99-763.8-1197.9-200.69-1738.1 107.87-103.48 187.13-186.72 176.13-184.98-10.997 1.7417-122.55 30.956-247.89 64.923z" fill="#000" stroke-width="1.5019"/>
 </g>
</svg>
